<?xml version="1.0" encoding="UTF-8"?>
<!DOCTYPE svg PUBLIC "-//W3C//DTD SVG 1.1//EN" "http://www.w3.org/Graphics/SVG/1.1/DTD/svg11.dtd">
<!-- Creator: CorelDRAW -->
<svg xmlns="http://www.w3.org/2000/svg" xml:space="preserve" width="210mm" height="297mm" style="shape-rendering:geometricPrecision; text-rendering:geometricPrecision; image-rendering:optimizeQuality; fill-rule:evenodd; clip-rule:evenodd"
viewBox="0 0 210 297"
 xmlns:xlink="http://www.w3.org/1999/xlink">
 <defs>
  <style type="text/css">
   <![CDATA[
    .str2 {stroke:#1F1A17;stroke-width:0.0762}
    .str1 {stroke:#DA251D;stroke-width:0.0762}
    .str0 {stroke:#1F1A17;stroke-width:6}
    .fil0 {fill:none}
    .fil6 {fill:#1F1A17}
    .fil3 {fill:#616F85}
    .fil4 {fill:#DA251D}
    .fil5 {fill:white}
    .fil1 {fill:#1F1A17;fill-rule:nonzero}
    .fil2 {fill:#DA251D;fill-rule:nonzero}
   ]]>
  </style>
 </defs>
 <g id="Слой_x0020_1">
  <metadata id="CorelCorpID_0Corel-Layer"/>
  <path class="fil0 str0" d="M57.9743 231.516c-68.7847,11 -142.083,9.1666 -219.896,-5.5 23.5,23.3749 64.9444,39.4166 124.333,48.125 2.9792,4.8124 -31.1667,5.4999 -102.438,2.0625 14.8959,24.7499 69.6667,35.75 164.313,33 -46.2916,20.3958 -88,29.3333 -125.125,26.8125 35.9792,20.8541 91.6667,21.0833 167.063,0.6874 -27.9583,24.9792 -59.5835,44.9168 -94.875,59.8126 24.9792,9.1666 72.4168,-4.5834 142.313,-41.25 -0.844,6.4258 -21.8941,22.9227 -63.1502,49.4904 25.5409,4.4668 67.3456,-7.5593 125.414,-36.078 -1.7752,6.872 -15.1184,19.0125 -40.0294,36.4216 20.1221,0.2356 58.2971,-15.5725 114.525,-47.4241 17.0705,5.27 45.8267,8.2488 86.2687,8.9362 2.0449,0.7491 6.0097,6.6492 11.8947,17.7001 2.9778,0.2864 4.5813,2.0616 4.8104,5.3258 1.6034,7.0438 2.2906,14.6603 2.0616,22.8494 -0.2862,8.9909 -6.6429,16.0347 -19.0698,21.1314 -22.3912,8.4754 -54.9761,13.2858 -97.7542,14.4312 -1.6606,-1.6034 -3.436,-2.9779 -5.3258,-4.1233 -0.9734,2.0618 -2.5197,3.4362 -4.6386,4.1233 -14.9465,0.6872 -48.5621,-0.6872 -100.847,-4.1232 -28.4614,-6.2993 -49.9365,-7.3302 -64.425,-3.0924 -4.2949,3.665 -10.537,5.4976 -18.7262,5.4976 -46.5005,0.859 -75.1339,-2.5197 -85.9,-10.1362 -8.9336,-6.0702 -11.2243,-15.3475 -6.872,-27.8316 1.9469,-5.4689 3.665,-8.59 5.154,-9.3631 0.8017,-9.9356 3.2069,-15.8055 7.2156,-17.6095m2.5802 -29.5701c-1.8929,8.9539 -2.7531,18.8108 -2.5802,29.57 7.0438,-6.4137 17.4091,-10.5369 31.0958,-12.3695 13.5953,-5.1468 24.2811,-5.9557 32.0574,-2.4269m-55.3527 -38.7172c0.1311,-8.048 1.0528,-13.0594 2.7652,-15.0344 -0.0854,-1.4482 -0.1146,-2.6345 -0.0874,-3.5589m373.838 75.0276c1.3172,2.176 -2.5197,4.5812 -11.5106,7.2156 -16.0918,4.6386 -44.897,8.2464 -86.4154,10.8234 -14.7461,0.0573 -26.5717,3.8942 -35.4767,11.5106 -3.35,4.1232 -9.7353,6.1848 -19.1557,6.1849 -14.4884,-1.3171 -35.7344,-6.1849 -63.7378,-14.6031 -17.1226,-3.665 -31.8401,-2.9779 -44.1526,2.0616 -5.7552,1.9185 -12.4841,4.6959 -20.1865,8.3323 -6.4424,3.3502 -14.0876,4.4669 -22.9353,3.3501 -21.3033,-4.6385 -43.7519,-8.4754 -67.3456,-11.5106 -15.8056,-3.751 -22.6776,-6.6429 -20.616,-8.6759m398.404 13.4863c-3.4359,4.0946 -12.3695,7.5593 -26.8008,10.3939 -14.6029,2.9779 -25.3118,5.9558 -32.1266,8.9336 -8.7617,3.6938 -19.9288,5.1541 -33.501,4.3809 -16.0918,-0.0859 -32.1838,-0.1718 -48.2758,-0.2577 -4.524,3.1783 -9.0481,5.154 -13.5722,5.9271 -20.5587,-0.5726 -41.1174,-1.1453 -61.6762,-1.718 -7.96,0.63 -14.6602,-1.8325 -20.1006,-7.3874 -3.8941,-4.0086 -8.2464,-7.5592 -13.0568,-10.6516 -6.242,-5.0966 -13.973,-5.7266 -23.193,-1.8898 -10.5943,4.6958 -21.1886,9.3917 -31.783,14.0876 -6.0129,4.2377 -12.3696,4.1232 -19.0698,-0.3436 -16.2064,-9.5062 -34.3599,-10.7662 -54.4606,-3.7796 -13.6717,3.0781 -22.9066,0.9163 -27.7045,-6.4852m104.447 -40.718c4.6194,3.4033 10.1483,6.129 16.5866,8.1771m85.4428 -1.4361c-13.2184,-1.5837 -26.5905,-0.11 -40.1164,4.4214m63.6491 -0.9396c23.4691,5.9991 35.1481,12.8855 35.037,20.6594m35.2393 -56.1859c-1.2228,-0.279 -1.7449,-0.7921 -1.5665,-1.5389 2.2334,-2.806 5.6122,-2.7488 10.1362,0.1718 0.9373,-1.2276 1.8748,-2.4551 2.8122,-3.6824 -0.1337,-0.1491 -0.2616,-0.2991 -0.3834,-0.4497 -7.4468,-11.5712 -16.956,-17.8724 -28.5272,-18.9035 0,-7.4469 -8.2488,-13.7481 -24.7464,-18.9035 -1.1455,-7.4468 -10.9984,-14.6645 -29.5582,-21.6531 -7.9051,-5.3846 -16.4976,-9.1654 -25.7775,-11.3421 2.6137,-3.9219 2.1869,-7.7489 -1.2804,-11.4812 -1.8324,-6.7573 -5.2685,-13.0566 -10.308,-18.8978 -2.8634,-9.2774 -7.1012,-17.8675 -12.7132,-25.7701 -8.7904,-1.4318 -16.9508,-3.8942 -24.4815,-7.3874 -19.3274,-0.6872 -40.4302,-2.7488 -63.3083,-6.1848 -37.1182,-2.2742 -56.3504,-1.6034 -57.6964,2.0124 57.0877,12.8022 99.9356,23.8006 128.544,32.9952m-56.2631 -32.9724c7.2916,-11.1406 18.8085,-13.2506 34.5505,-6.3302 2.2333,4.4108 4.3522,7.7882 6.3568,10.1321m15.3558 29.1705c1.9384,0.4117 3.2336,1.1981 3.8855,2.3589 -32.871,1.9183 -65.7419,3.8368 -98.6131,5.7553 10.5944,7.4446 46.7296,12.1406 108.406,14.0876 6.5284,2.0901 14.5457,4.5813 24.052,7.4733 1.6961,0.9352 1.947,2.1761 0.7528,3.7223m186.641 86.5539c-0.7611,4.9294 -10.7121,8.7106 -29.8527,11.3435 -10.5942,1.8897 -21.5322,2.7488 -32.8138,2.577 -9.2198,6.242 -17.6381,6.9864 -25.2546,2.2334 -1.6034,-5.5262 -3.6651,-10.5371 -6.1848,-15.0325 0.229,-3.8655 1.489,-5.8413 3.7797,-5.9272 2.8852,-1.1429 4.2376,-2.5197 4.0575,-4.1304m3.4108 -3.5408c-2.0279,-1.9208 -5.2619,-2.5993 -9.7018,-2.0354 -19.8715,-0.945 -31.9548,-2.6343 -36.2498,-5.0681m0 0c-1.4316,-0.9163 -2.1761,-1.9471 -2.2334,-3.0924 1.6608,-0.7445 2.5199,-1.9472 2.5771,-3.6078 5.4404,0.8875 5.4118,-0.2579 13.8298,-4.9822 -22.9066,-4.2091 -48.4761,-6.1562 -90.6244,-4.295 17.2944,-10.7089 38.9414,-16.2638 64.9403,-16.6646 -15.691,-11.6824 -48.7912,-13.5149 -99.3004,-5.4976 15.8629,-13.6295 35.5054,-20.1579 58.9274,-19.5852 -8.4181,-5.6121 -46.7295,-9.6208 -114.934,-12.026 45.902,-11.4437 83.1513,-10.0791 111.748,4.0937m96.5922 57.8738c-0.0037,2.2855 -6.6863,3.7347 -20.0472,4.3473 -4.4093,0.3436 -1.7155,0.9758 -8.1867,-0.0549m-54.9426 -57.693c-22.424,-5.5748 -23.0302,-7.2211 -70.5353,-11.0324m100.117 25.8681c-19.3944,-3.3866 -31.617,-5.856 -68.2553,-2.0938m95.7973 22.1358c-0.0072,1.3951 -1.6131,2.3183 -4.8175,2.7696 -16.8932,-0.3993 -17.8184,-2.0689 -51.2055,0.0479m-19.8783 -63.6793c-1.9215,0.7706 1.9752,-2.3807 -21.2115,-3.1573 -9.7899,-0.3278 -25.2555,2.8741 -46.6557,1.9497m58.9354 -15.2354c-12.2576,-7.3357 -34.4661,-18.2056 -116.357,-27.3663m112.332 88.4773c7.9892,4.9683 15.9787,9.9366 23.9675,14.9047m17.3964 10.8183c19.4924,12.122 38.9852,24.2438 58.4775,36.3655m-69.5675 26.4098c31.6277,-18.3958 48.4138,-29.7638 49.7748,-38.7183m-132.073 39.9207c29.2404,-7.9018 49.9499,-23.0376 101.542,-58.9071m-38.3337 -23.8388c-65.157,42.8669 -90.8795,60.6526 -131.179,73.5541m105.094 -89.7762c-84.4396,33.5406 -136.149,50.793 -184.685,46.9451m159.896 -62.3024c-87.49,13.1532 -143.997,18.6833 -205.265,6.9667m159.964 -34.0049c-85.9762,1.6769 -131.723,3.488 -177.587,-12.0366"/>
  <polygon class="fil1" points="384.865,204.317 344.484,204.317 344.484,273.686 338.203,275.113 338.203,285.812 378.583,311.313 378.583,267.445 384.865,266.018 "/>
  <path class="fil2" d="M337.006 324.688c0,2.021 -0.3989,3.5368 -1.1965,4.5473 -0.7977,1.0105 -2.4927,1.5158 -5.085,1.5158 -4.5864,0 -6.8796,-2.0211 -6.8796,-6.0631l0 -34.7738 -36.4921 0 0 31.3856c0,5.8253 0.4487,10.5807 1.3461,14.2661 0.8973,3.6854 2.8914,6.5684 5.9822,8.6489 3.0908,2.0804 7.5776,3.5071 13.4602,4.2798 5.8826,0.7728 13.8092,1.1591 23.7797,1.1591 10.1698,0 18.2461,-0.3566 24.2283,-1.0699 5.9823,-0.7133 10.519,-2.1102 13.6098,-4.1907 3.0908,-2.0805 5.1349,-4.9634 6.1319,-8.6489 0.997,-3.6854 1.4955,-8.5002 1.4955,-14.4444l0 -7.3114 -40.3805 -25.5008 0 36.2004z"/>
  <polygon class="fil2 str1" points="452.166,302.397 452.166,322.191 487.461,328.611 487.461,323.796 487.461,302.397 "/>
  <path class="fil1" d="M445.884 327.541c0,1.7833 -0.3489,3.2099 -1.0468,4.2798 -0.6979,1.07 -2.3431,1.605 -4.9354,1.605 -2.1936,0 -3.6393,-0.4756 -4.3373,-1.4266 -0.6979,-0.9511 -1.0468,-2.4372 -1.0468,-4.4582l0 -3.7449 0.8974 0.3567 0 -29.2456 46.3627 0 0 -10.5213 -34.9964 -22.4692 0 16.7627 -11.3663 0 0 -17.6543 -35.2957 12.1262 0 44.5817 -0.8973 -0.1783 0 9.808c0,4.6365 0.5983,8.3813 1.7947,11.2346 1.1965,2.8532 3.2903,5.0823 6.2813,6.6872 2.9912,1.605 7.0791,2.7047 12.2637,3.2991 5.1847,0.5944 11.7653,0.8916 19.7417,0.8916 7.5775,0 13.9587,-0.2378 19.1433,-0.7133 5.1847,-0.4755 9.3723,-1.3672 12.563,-2.6749 3.1905,-1.3077 5.5834,-3.091 7.1787,-5.3498 1.5953,-2.2588 2.4927,-5.2309 2.6921,-8.9164l-34.9966 -6.2414 0 1.9616z"/>
  <path class="fil2 str1" d="M436.911 252.108l-22.1346 -13.9095 2.0939 0.3567 20.9381 13.3745 0 -0.3567c0,-1.9021 0.299,-3.299 0.8973,-4.1906 0.5982,-0.8917 2.2931,-1.3375 5.0849,-1.3375 2.1935,0 3.5894,0.5053 4.1877,1.5158 0.5981,1.0105 0.8973,2.348 0.8973,4.0123l0 2.6749 12.2638 -4.2798 1.7945 0.535 17.9471 -6.2415c-1.7948,-5.3498 -5.7331,-8.8569 -11.8152,-10.5212 -6.0819,-1.6644 -15.504,-2.4966 -28.2664,-2.4966 -6.9792,0 -12.9117,0.208 -17.7973,0.6241 -4.8856,0.4161 -8.8238,1.1591 -11.815,2.2291l-0.5983 0 -0.2991 0.1783 0.2991 0c-0.1994,0.1189 -0.5981,0.2972 -1.1965,0.535l-0.5981 -0.1783c-2.7918,1.7833 -4.6862,4.0421 -5.6832,6.7764 -0.9971,2.7344 -1.4956,6.3009 -1.4956,10.6996l0 18.546 35.2956 -12.3045 0 -6.2415z"/>
  <path class="fil1 str2" d="M463.831 249.969l-16.1521 5.7065 0 4.8148 35.2955 22.4692 0 -28.354 -0.2991 0 0 -0.1783c0,-3.9232 -0.3989,-7.0737 -1.1965,-9.4514l-16.4513 5.5282 -1.1965 -0.535z"/>
  <polygon class="fil2 str1" points="542.797,204.139 531.132,204.139 542.797,211.628 "/>
  <path class="fil2 str1" d="M535.918 327.006l0 -0.8916 0 -7.8464 -35.5947 -1.4266 0 7.8464c0,4.2798 0.2991,7.9652 0.8974,11.0562 0.5981,3.091 2.0438,5.5876 4.3371,7.4898 2.2933,1.9021 5.783,3.299 10.469,4.1906 4.6861,0.8917 11.0174,1.3375 18.9938,1.3375l14.6567 0 0 -16.2277 -4.4868 0c-3.5893,0 -6.032,-0.4161 -7.3283,-1.2483 -1.2961,-0.8322 -1.9442,-2.2588 -1.9442,-4.2799z"/>
  <polygon class="fil1 str2" points="549.378,232.671 549.378,230.531 535.619,230.531 535.619,211.45 523.355,203.96 500.024,203.96 500.024,208.597 501.819,211.985 501.819,229.818 493.144,229.818 493.144,238.734 492.247,238.556 492.247,245.51 501.52,245.51 501.52,253.714 504.511,252.465 504.511,266.196 506.305,266.196 506.305,312.561 541.9,313.988 541.9,265.661 540.106,265.661 540.106,259.242 539.507,258.707 539.507,247.115 531.132,245.51 530.235,244.44 532.329,244.797 532.029,244.084 539.507,245.51 539.507,243.549 553.266,243.549 553.266,231.066 "/>
  <polygon class="fil1" points="529.935,243.727 529.636,243.549 528.141,243.37 528.739,243.014 529.038,243.37 529.935,243.549 "/>
  <path class="fil1" d="M689.663 265.305l-12.8619 -1.9616 0 7.1331 0.8973 -0.1783c0,3.091 -0.4487,5.2309 -1.3459,6.4197 -0.8974,1.1889 -3.6394,1.7833 -8.2257,1.7833l-2.9912 0 0 -4.4582 1.4955 -0.7133 0 -13.5528 -40.6796 -6.7764 0 31.9205 -2.0938 0.535 0 9.9863 3.2903 0 0 37.9836 40.9788 -9.4513 0 -27.1057 5.9822 0c9.9705,0 17.8971,-0.3864 23.7797,-1.1592 5.8826,-0.7727 10.3195,-2.229 13.3105,-4.369 2.9912,-2.1399 4.9354,-5.0526 5.8328,-8.738 0.8974,-3.6854 1.3461,-8.3813 1.3461,-14.0878l-25.1258 -4.2798 -3.5893 1.0699z"/>
  <polygon class="fil2 str1" points="623.259,348.762 663.939,348.762 663.939,325.936 623.259,335.387 "/>
  <path class="fil2 str1" d="M721.369 234.098c0,-5.9442 -0.4487,-10.7888 -1.3461,-14.5336 -0.8973,-3.7449 -2.8416,-6.6873 -5.8328,-8.8272 -2.9912,-2.1399 -7.4279,-3.5963 -13.3105,-4.369 -5.8826,-0.7728 -13.8092,-1.1592 -23.7797,-1.1592l-49.6532 0 0 47.6133 40.6798 6.9548 0 -35.6654 3.2902 0c4.7858,0 7.5776,0.5647 8.3752,1.6941 0.7977,1.1294 1.1964,3.4179 1.1964,6.8656l0 29.2456 13.1611 2.1399 -0.299 0.1784 24.8265 3.9231 0 -0.1783 0 -10.3429 2.6921 -0.8917 0 -22.6475z"/>
  <polygon class="fil2" points="794.353,347.157 835.631,347.157 835.631,328.967 794.353,333.247 "/>
  <path class="fil2 str1" d="M794.353 243.906l0 16.5844c0,1.6644 -0.1994,2.7938 -0.5983,3.3882l36.7912 7.1331c2.1936,-2.1399 3.5895,-4.6662 4.1876,-7.5789 0.5983,-2.9127 0.8974,-6.3901 0.8974,-10.4321l0 -18.3677 -41.2779 9.273z"/>
  <path class="fil1" d="M788.072 318.446l0 15.3361 40.6798 -4.2798 0 -2.8532 1.1964 0.5349 3.8884 0.7134 0 -9.273 -20.9381 -1.2483 -0.299 0 21.2371 1.0699 0 -17.2977c0,-5.9442 -1.1964,-10.6402 -3.5893,-14.0878 -2.3929,-3.4477 -7.3781,-6.1226 -14.9557,-8.0247 6.3811,-1.5455 10.8678,-3.8043 13.4602,-6.7764l-36.4921 -7.1331c-0.3989,1.3077 -1.2463,2.2885 -2.5425,2.9424 -1.2961,0.6538 -3.3401,0.9808 -6.1319,0.9808 -0.5981,0 -1.2463,-0.0297 -1.9442,-0.0892 -0.6979,-0.0594 -1.3461,-0.0891 -1.9442,-0.0891l0 -6.2415 -23.9293 -4.9931 -0.5981 0.3566 -8.6744 -1.9616 5.6831 -1.2483 0.2991 0.3567 1.1965 -0.7133 12.862 -2.6749 -11.3663 4.8148 23.9291 4.8148 0 -13.0178 0.2991 -0.3567 0 -22.6475 2.6921 0c5.1847,0 8.2257,0.6539 9.1229,1.9616 0.8974,1.3077 1.346,3.6854 1.346,7.1331l0 3.3882 -3.2902 1.4266 0 3.5665 3.2902 -1.0699 0 0.5349 1.1965 -0.7133 36.7912 -8.3813 0 -0.3567c0,-1.3077 0,-2.4966 0,-3.5665 0,-1.1889 -0.1995,-2.2588 -0.5982,-3.2099l2.692 -1.4266c-0.5982,-3.4477 -1.695,-6.3603 -3.2903,-8.738 -1.5953,-2.3777 -4.0878,-4.2799 -7.4778,-5.7065 -3.39,-1.4266 -7.7769,-2.4371 -13.161,-3.0316 -5.3841,-0.5944 -12.0643,-0.8916 -20.0408,-0.8916l-50.5505 0 0 47.0783 -4.7858 -0.8916 0 3.3882 4.7858 -1.2483 7.4779 1.4266 -7.4779 1.605 0 8.203 0.299 0 0 14.2661 41.2781 21.2209 0 -10.8779c0.5981,0 1.1465,-0.0594 1.6451,-0.1783 0.4985,-0.1189 1.0469,-0.1783 1.6452,-0.1783 3.5893,0 6.0818,0.5349 7.4777,1.6049 1.3959,1.07 2.0938,2.7938 2.0938,5.1715l0 11.5912 15.255 7.4898 -5.3841 -0.1784 -14.9557 -7.8464 0 8.0248 4.7858 0.1783 0 3.0315 -4.1877 -0.7133z"/>
  <polygon class="fil2" points="775.21,334.495 775.21,315.415 774.911,315.415 774.911,312.74 774.013,312.74 774.013,301.505 732.736,280.462 732.736,312.205 733.932,312.205 733.932,338.24 "/>
  <polygon class="fil1" points="736.325,348.405 777.902,348.405 777.902,335.922 736.325,339.667 "/>
  <path class="fil2" d="M944.21 294.729l-40.9788 -1.9616 0 31.5638 2.3929 -0.7133c0,0.5944 -0.0997,1.07 -0.2991,1.4266 -0.1994,0.3567 -0.3989,0.7133 -0.5983,1.07l0.8974 1.7833c-1.1965,0.4755 -2.3929,0.7133 -3.5894,0.7133 -3.9882,0 -6.3811,-1.3672 -7.1787,-4.1016l-37.6885 11.9479c1.1964,2.2589 2.8416,4.1313 4.9354,5.6173 2.0937,1.4861 4.8854,2.6452 8.3751,3.4774 3.4897,0.8322 7.8269,1.3969 13.0115,1.6941 5.1847,0.2972 11.3665,0.4458 18.5452,0.4458 2.7918,0 5.2843,0 7.4779,0 2.3929,0 4.6862,-0.1188 6.8797,-0.3566l-0.2991 -0.3567c6.5805,-0.3566 11.9147,-1.0997 16.0027,-2.2291 4.0878,-1.1294 7.1787,-2.764 9.2725,-4.9039 2.0938,-2.14 3.4897,-4.9338 4.1876,-8.3814 0.698,-3.4477 1.0469,-7.7275 1.0469,-12.8395l0 -10.5213 -2.3929 0.7133 0 -14.0878z"/>
  <polygon class="fil1" points="905.923,289.022 946.902,290.984 946.902,238.912 905.923,232.136 "/>
  <path class="fil1" d="M893.959 322.726l0 -22.4692 -2.0938 -4.2799 0 -4.4581 0.8974 0 0 -58.3129 -29.9115 -4.8149 -2.0939 -4.2798 -6.5805 -0.8916 0 0.5349 -3.2903 -8.203c-0.997,2.2588 -1.6949,5.112 -2.0938,8.5597l5.3841 0.8916c0,1.07 -0.0498,2.14 -0.1496,3.2099 -0.0997,1.07 -0.1495,2.1399 -0.1495,3.2099l0 55.103 31.7061 1.2483 0.2991 0.535 -32.9026 -1.4266 0 32.4555c0,3.6854 0.2493,6.9844 0.7478,9.8971 0.4985,2.9127 1.2463,5.3795 2.2434,7.4006l38.2867 -11.7696c-0.1994,-0.3567 -0.2991,-1.07 -0.2991,-2.1399z"/>
  <path class="fil2" d="M902.035 203.425c-7.1787,0 -13.3605,0.1486 -18.5452,0.4458 -5.1846,0.2972 -9.5218,0.8322 -13.0115,1.6049 -3.4897,0.7728 -6.2814,1.9022 -8.3751,3.3883 -2.0938,1.486 -3.739,3.4179 -4.9354,5.7956l4.4867 9.4513 33.8 5.7065 0 -1.4267c0,-2.021 0.4487,-3.5368 1.346,-4.5473 0.8974,-1.0105 2.5425,-1.5158 4.9354,-1.5158 2.7918,0 4.5864,0.5053 5.3841,1.5158 0.7976,1.0105 1.1965,2.5263 1.1965,4.5473l0 3.5666 40.9786 6.9547 0 -7.3114c0,-6.0631 -0.4985,-10.9671 -1.4955,-14.7119 -0.997,-3.7449 -3.1406,-6.5981 -6.4309,-8.5597 -3.2903,-1.9616 -8.0761,-3.2694 -14.3576,-3.9232 -6.2814,-0.6539 -14.6068,-0.9808 -24.9761,-0.9808z"/>
  <path class="fil1" d="M931.866 396.827c1.6327,-0.3851 2.4489,-0.9628 2.4489,-1.733 0,-0.7702 -1.0203,-1.6688 -3.0609,-2.6957 -1.8369,-1.0911 -4.6937,-1.6367 -8.5712,-1.6367 -3.6734,0 -7.2447,0.4974 -10.7143,1.4923 -3.4692,0.9948 -5.2037,2.3266 -5.2037,3.9954 0,1.1553 1.0204,2.3748 3.061,3.6585 2.4489,1.8613 5.4082,3.5301 8.8774,5.0063 3.4692,1.4762 6.0202,2.9524 7.6529,4.4287 2.2448,1.7971 3.3672,3.2091 3.3672,4.2361 0,1.2837 -1.6327,1.9255 -4.8978,1.9255 -2.2448,0 -4.847,-0.2888 -7.8059,-0.8665 -2.9592,-0.5776 -5.3569,-1.2516 -7.1938,-2.0218 -1.0203,-0.2567 -2.2448,-0.3851 -3.6734,-0.3851 -2.2447,0 -3.3671,0.4814 -3.3671,1.4442 0,0.706 0.7141,1.3157 2.1427,1.8292 2.4489,0.9627 4.8978,1.5244 7.3467,1.6848 2.4489,0.1605 5.7144,0.2407 9.7957,0.2407 3.2654,0 6.3264,-0.5937 9.1836,-1.7811 2.8571,-1.1874 4.2854,-2.6476 4.2854,-4.3805 0,-0.5135 -0.1529,-1.0751 -0.4591,-1.6848 -0.3059,-0.6098 -0.9692,-1.2035 -1.9898,-1.7811 -1.8365,-1.6688 -4.5405,-3.3215 -8.1121,-4.9582 -3.5713,-1.6367 -6.7855,-3.3215 -9.6424,-5.0545 -1.0206,-0.5135 -1.6836,-1.043 -1.9898,-1.5885 -0.3061,-0.5456 -0.4591,-1.043 -0.4591,-1.4923 0,-0.8986 0.51,-1.6367 1.5303,-2.2143 1.0207,-0.5777 2.3472,-0.8986 3.9796,-0.9628 2.2448,0 4.0816,0.5456 5.5102,1.6367 0.408,0.2567 0.7142,0.5937 0.9183,1.0109 0.2041,0.4172 0.5103,0.8183 0.9182,1.2034 0.4083,0.3851 1.0716,0.7221 1.9898,1.0109 0.9183,0.2889 2.296,0.4333 4.1325,0.4333zm-62.7534 4.8137c0,-0.5776 0.1532,-1.1713 0.4591,-1.7811 0.3062,-0.6097 0.7653,-1.1713 1.3777,-1.6848 0.2041,-0.4493 0.7142,-1.0109 1.5303,-1.6848 0.8166,-0.6739 1.8369,-1.3158 3.0613,-1.9255 1.2245,-0.6098 2.551,-1.1232 3.9796,-1.5404 1.4286,-0.4172 2.8569,-0.6258 4.2854,-0.6258 3.0613,0.3209 4.592,0.9627 4.592,1.9255 0,0.5777 -0.5612,1.2355 -1.6836,1.9736 -1.1227,0.7382 -2.6022,1.4442 -4.4387,2.1181 -1.8368,0.6739 -3.8775,1.2997 -6.1226,1.8774 -2.2448,0.5776 -4.5916,1.0269 -7.0405,1.3478zm38.5705 -18.0997c1.8368,0.706 2.7551,1.4762 2.7551,2.3106 0,0.7702 -0.4591,1.5725 -1.3774,2.4069 -0.9186,0.8343 -2.0918,1.6527 -3.5204,2.455 -1.4286,0.8023 -3.0101,1.5885 -4.7449,2.3587 -1.7345,0.7702 -3.3163,1.4442 -4.7449,2.0218 0,-1.4762 -0.9183,-2.5513 -2.7548,-3.2252 -1.8368,-0.6739 -4.2857,-1.043 -7.3467,-1.1072 -3.2654,0 -6.2244,0.2888 -8.8774,0.8665 -1.6327,0.3209 -3.4692,0.8023 -5.5102,1.4441 -2.0407,0.6419 -4.0304,1.4602 -5.9694,2.455 -1.9385,0.9949 -3.5713,2.2144 -4.8978,3.6585 -1.3265,1.4441 -1.9894,3.1611 -1.9894,5.1507 0,1.6688 0.5612,3.2574 1.6835,4.7657 1.1224,1.5083 2.6019,2.8722 4.4387,4.0917 1.8366,1.2195 4.0813,2.2143 6.7344,2.9845 2.653,0.7702 5.5102,1.1874 8.5712,1.2516 2.8571,0 5.9184,-0.4172 9.1836,-1.2516 3.2651,-0.8344 5.5099,-2.2143 6.7343,-4.1398l-0.6121 0c-2.2447,1.0911 -4.3366,1.8453 -6.2752,2.2624 -1.9389,0.4172 -3.8266,0.6258 -5.6631,0.6258 -3.4696,0 -6.4285,-0.706 -8.8774,-2.118 -2.4489,-1.4121 -4.0816,-3.0808 -4.8978,-5.0063 -0.2042,-0.5135 -0.3574,-0.9467 -0.4592,-1.2998 -0.102,-0.353 -0.1532,-0.6578 -0.1532,-0.9146 0,-0.3209 0,-0.6418 0,-0.9627 0,-0.3851 0,-0.8665 0,-1.4442 6.5305,-0.8985 12.1937,-1.9094 16.9894,-3.0326 4.7958,-1.1232 8.1121,-2.5513 9.9486,-4.2843 3.4696,-1.3478 6.2755,-2.5513 8.4183,-3.6103 2.143,-1.059 3.8266,-2.0218 5.051,-2.8883 1.2245,-0.8665 2.0407,-1.6367 2.449,-2.3106 0.4079,-0.6739 0.612,-1.3318 0.612,-1.9736 0,-1.733 -1.0203,-3.129 -3.061,-4.188 -2.0409,-1.059 -4.1836,-1.5886 -6.4284,-1.5886 -1.0204,0 -1.9389,0.1284 -2.7551,0.3851 -1.0204,0.4493 -1.5307,0.7702 -1.5307,0.9628 0,0.4493 0.9186,0.8665 2.7551,1.2516 1.8369,0.3851 3.8775,0.9306 6.1223,1.6367zm-56.6312 9.2424c0,-1.4762 -1.0203,-2.2143 -3.0613,-2.2143 -1.0203,0 -2.1427,0.1765 -3.3671,0.5295 -1.2245,0.353 -2.4998,0.7702 -3.8264,1.2516 -1.3265,0.4813 -2.6021,1.0108 -3.8266,1.5885 -1.2244,0.5777 -2.2448,1.0911 -3.061,1.5404l1.8366 0c1.0203,-0.5135 1.9897,-1.0109 2.908,-1.4923 0.9186,-0.4813 1.6839,-0.722 2.296,-0.722 0.6124,0 0.9182,0.4814 0.9182,1.4441l0 17.137c-1.2244,0.7702 -2.6018,1.4121 -4.1325,1.9255 -1.5306,0.5135 -2.8059,0.7702 -3.8263,0.7702 -2.4489,0 -3.6733,-1.0911 -3.6733,-3.2733l0 -18.2924c0,-0.9627 -0.4592,-1.6206 -1.3777,-1.9736 -0.9183,-0.353 -1.9898,-0.5295 -3.2143,-0.5295 -1.0203,0 -1.9386,0.0963 -2.7548,0.2888 -0.8165,0.1926 -1.4285,0.4172 -1.8368,0.6739l-8.5712 4.3324 0.6121 0.3851c1.0206,-0.6418 2.143,-1.1874 3.3675,-1.6366 1.2244,-0.4493 2.1427,-0.674 2.7551,-0.674 1.0203,0 1.6324,0.6098 1.8365,1.8293l0 17.137c0,1.3478 0.3571,2.439 1.0715,3.2733 0.7141,0.8344 2.1936,1.2516 4.4387,1.2516 1.6324,0 3.6734,-0.2888 6.1223,-0.8665 1.8365,-0.5134 3.5201,-1.1553 5.0507,-1.9255 1.5307,-0.7702 2.9081,-1.3478 4.1325,-1.7329 0,1.2195 0.2042,2.2945 0.6124,3.2252 0.4083,0.9307 1.5307,1.396 3.3672,1.396 0.8162,0 1.7348,-0.1284 2.7551,-0.3851 1.2245,-0.3209 2.551,-0.8504 3.9796,-1.5885 1.4286,-0.7382 2.7548,-1.4923 3.9795,-2.2625l-0.6123 -0.3851c-1.6328,0.9627 -2.8572,1.4441 -3.6734,1.4441 -0.6124,0 -0.9695,-0.2567 -1.0715,-0.7702 -0.1021,-0.5135 -0.153,-0.9948 -0.153,-1.4441l0 -19.2551zm-37.6522 20.7955c-0.8162,0.9627 -1.7345,1.6367 -2.7548,2.0218 -1.0207,0.3851 -2.1431,0.5776 -3.3675,0.5776 -1.6324,0 -3.061,-0.3209 -4.2855,-0.9627 -1.2244,-0.6419 -1.8368,-1.3158 -1.8368,-2.0218l0 -29.8454c0,-5.584 1.5815,-9.8361 4.7449,-12.7565 3.163,-2.9203 7.0917,-4.3805 11.7854,-4.3805 3.8775,0 7.755,0.9627 11.6325,2.8882 0.8162,0.3851 2.0915,0.8023 3.8263,1.2516 1.7348,0.4493 4.1325,0.674 7.1938,0.674 1.2245,-0.0642 1.8365,-0.4172 1.8365,-1.0591 0,-0.5134 -0.612,-1.0911 -1.8365,-1.7329 -1.2244,-0.6419 -3.4695,-1.2516 -6.7347,-1.8293 -4.2854,-0.8985 -8.6732,-1.3478 -13.1628,-1.3478 -4.2857,0 -8.2141,0.4814 -11.7854,1.4441 -3.5713,0.9628 -6.5817,2.2946 -9.0306,3.9954 -2.449,1.7009 -4.3367,3.6906 -5.6632,5.9691 -1.3262,2.2785 -1.9895,4.7656 -1.9895,7.4614l0 29.2677c0.408,1.7329 1.9895,2.8722 4.7446,3.4178 2.7551,0.5455 5.0511,0.8183 6.8876,0.8183 1.8369,0 4.0305,-0.2728 6.5814,-0.8183 2.551,-0.5456 3.8267,-1.5565 3.8267,-3.0327l-0.6124 0zm-43.4684 -17.7147l0 16.7519c-1.0203,0.7702 -1.9898,1.3479 -2.908,1.733 -0.9186,0.3851 -2.1939,0.7702 -3.8266,1.1553 -1.8366,0.5776 -3.5714,0.8665 -5.2041,0.8665 -2.2448,0 -3.9283,-0.3691 -5.0507,-1.1072 -1.1224,-0.7381 -1.7857,-1.4281 -1.9898,-2.0699 -0.4083,-1.6688 -0.6121,-3.2092 -0.6121,-4.6212 0,-1.4121 0,-2.8883 0,-4.4287 0.2038,-1.3479 0.9183,-2.7439 2.1427,-4.188 1.2245,-1.4441 2.6019,-2.7599 4.1325,-3.9473 1.5307,-1.1874 3.1634,-2.1501 4.8979,-2.8882 1.7347,-0.7382 3.3163,-1.1072 4.7448,-1.1072 2.449,0 3.6734,1.2837 3.6734,3.851zm0.6121 17.5221c0.2041,0.3851 0.4594,0.8023 0.7653,1.2516 0.3062,0.4493 0.6633,0.8825 1.0715,1.2997 0.4083,0.4172 0.9695,0.7702 1.6836,1.0591 0.7142,0.2888 1.5815,0.4332 2.6019,0.4332 1.8368,0 3.8775,-0.5135 6.1226,-1.5404 2.2447,-1.0269 4.2854,-1.9255 6.1222,-2.6957 -0.6123,0 -1.0715,-0.0642 -1.3777,-0.1926 -0.3062,-0.1283 -0.4591,-0.2567 -0.4591,-0.3851 -1.0203,0.5777 -2.1427,1.2356 -3.3672,1.9737 -1.2244,0.7381 -2.3468,1.1071 -3.3671,1.1071 -0.8166,0 -1.2245,-0.5776 -1.2245,-1.7329l0 -22.5285c-2.041,-0.5134 -4.694,-0.7702 -7.9591,-0.7702 -2.6531,0 -4.6937,0.1926 -6.1223,0.5777 -7.1426,1.8613 -13.0099,4.2842 -17.6018,7.2688 -4.5917,2.9845 -6.8873,6.659 -6.8873,11.0235 0,1.1553 0.51,2.1662 1.5303,3.0327 1.0203,0.8665 2.1939,1.6046 3.5204,2.2143 1.3266,0.6098 2.6531,1.1072 3.9796,1.4923 1.3265,0.3851 2.3977,0.6418 3.2142,0.7702 1.4286,0.2567 2.9589,0.3851 4.5917,0.3851 3.0613,0 5.6119,-0.4172 7.6529,-1.2516 2.0406,-0.8344 3.8775,-1.765 5.5099,-2.792zm-78.059 -17.5221l21.4278 21.5657 22.0405 -27.7273c1.0204,-1.0911 1.5304,-2.0218 1.5304,-2.792 0,-1.7971 -1.5304,-2.9845 -4.5917,-3.5622 -0.8162,-0.2567 -1.7347,-0.3851 -2.7551,-0.3851 -2.653,0 -3.9795,0.4172 -3.9795,1.2516 0,0.4493 0.6124,0.8023 1.8368,1.059 1.4286,0.2568 2.4998,0.5777 3.2143,0.9628 0.7141,0.3851 1.0715,1.0269 1.0715,1.9255 0,0.8985 -0.6124,2.3106 -1.8369,4.2361l-14.0814 17.137 -16.53 -15.5966c-1.0206,-1.1553 -2.0918,-2.1181 -3.2142,-2.8883 -1.1224,-0.7702 -2.5001,-1.1553 -4.1325,-1.1553 -1.2245,0 -2.653,0.353 -4.2858,1.0591 -1.2244,0.8985 -2.4489,1.749 -3.6733,2.5513 -1.2245,0.8023 -2.4489,1.6848 -3.6734,2.6475l1.2245 0c2.0406,-1.6046 3.9795,-2.4068 5.816,-2.4068 1.0204,0 1.939,0.2085 2.7552,0.6257 0.8161,0.4172 1.4285,0.9147 1.8368,1.4923z"/>
  <path class="fil2" d="M629.424 411.846c-1.2244,1.4762 -2.7548,2.5674 -4.5916,3.2734 -1.8365,0.706 -3.6734,1.059 -5.5099,1.059 -2.8572,0 -5.3573,-0.6579 -7.5,-1.9736 -2.1427,-1.3158 -3.2142,-3.0648 -3.2142,-5.247l0 -14.6339c0,-0.3851 -0.0509,-0.8504 -0.153,-1.396 -0.102,-0.5456 -0.3062,-1.043 -0.6123,-1.4923 -0.3059,-0.4492 -0.7654,-0.8343 -1.3774,-1.1553 -0.6124,-0.3209 -1.3266,-0.4813 -2.1428,-0.4813 -1.2244,0 -2.653,0.353 -4.2857,1.059 -1.6327,0.7702 -2.9081,1.5083 -3.8263,2.2143 -0.9186,0.706 -1.6839,1.4121 -2.296,2.1181l1.8365 0c1.6327,-1.5404 2.6531,-2.3106 3.0613,-2.3106 0.4083,0 0.6124,0.2567 0.6124,0.7702 0,0.5134 0,1.1232 0,1.8292l0 14.2488c0,1.0269 0.51,2.0057 1.5303,2.9364 1.0204,0.9306 2.3981,1.749 4.1325,2.455 1.7348,0.706 3.6225,1.2676 5.6632,1.6848 2.041,0.4172 4.1837,0.6258 6.4285,0.6258 2.4489,0 4.7957,-0.3691 7.0408,-1.1072 2.2448,-0.7381 3.9793,-1.9736 5.2037,-3.7066l0 -0.7702zm10.4081 -17.5221c0,-1.412 -0.6121,-2.4871 -1.8366,-3.2252 -1.2244,-0.7381 -2.5509,-1.1072 -3.9795,-1.1072 -1.0203,0 -1.9389,0.1605 -2.7551,0.4814 -1.6327,0.706 -3.2143,1.4923 -4.7449,2.3587 -1.5303,0.8665 -2.6019,1.6849 -3.2142,2.4551l1.2244 0c2.2451,-1.6688 3.7754,-2.5032 4.592,-2.5032 1.0203,0 1.5303,1.2195 1.5303,3.6585l0 31.7708c0,1.733 -0.765,3.2574 -2.2957,4.5731 -1.5306,1.3158 -3.5204,2.4069 -5.9693,3.2734 -2.4489,0.8665 -5.2549,1.5083 -8.4183,1.9255 -3.163,0.4172 -6.3772,0.6258 -9.6424,0.6258 -3.4695,-0.1926 -6.5305,-0.2888 -9.1835,-0.2888 -4.6937,0 -8.3162,0.2086 -10.8672,0.6258 -2.551,0.4171 -3.8263,0.8825 -3.8263,1.3959 0,0.5135 1.2753,0.9788 3.8263,1.396 2.551,0.4172 6.5814,0.6579 12.0916,0.7221 5.714,-0.0642 11.1734,-0.5937 16.3771,-1.5885 5.204,-0.9949 9.7956,-2.3106 13.7752,-3.9473 3.9795,-1.6367 7.1938,-3.482 9.6427,-5.5359 2.4489,-2.0538 3.6734,-4.1398 3.6734,-6.2579l0 -30.8081zm-47.4479 19.2551c-0.8162,0.9627 -1.7345,1.6367 -2.7548,2.0218 -1.0207,0.3851 -2.1431,0.5776 -3.3675,0.5776 -1.6324,0 -3.061,-0.3209 -4.2855,-0.9627 -1.2244,-0.6419 -1.8368,-1.3158 -1.8368,-2.0218l0 -29.8454c0,-5.584 1.5815,-9.8361 4.7449,-12.7565 3.163,-2.9203 7.0917,-4.3805 11.7854,-4.3805 3.8775,0 7.755,0.9627 11.6325,2.8882 0.8162,0.3851 2.0915,0.8023 3.8263,1.2516 1.7348,0.4493 4.1325,0.674 7.1938,0.674 1.2245,-0.0642 1.8365,-0.4172 1.8365,-1.0591 0,-0.5134 -0.612,-1.0911 -1.8365,-1.7329 -1.2244,-0.6419 -3.4695,-1.2516 -6.7347,-1.8293 -4.2854,-0.8985 -8.6732,-1.3478 -13.1628,-1.3478 -4.2857,0 -8.2141,0.4814 -11.7854,1.4441 -3.5713,0.9628 -6.5817,2.2946 -9.0307,3.9954 -2.4489,1.7009 -4.3366,3.6906 -5.6631,5.9691 -1.3262,2.2785 -1.9895,4.7656 -1.9895,7.4614l0 29.2677c0.408,1.7329 1.9895,2.8722 4.7446,3.4178 2.7551,0.5455 5.0511,0.8183 6.8876,0.8183 1.8369,0 4.0304,-0.2728 6.5814,-0.8183 2.551,-0.5456 3.8266,-1.5565 3.8266,-3.0327l-0.6123 0zm-44.3867 -27.7273c0,0.9627 0.5104,1.4441 1.5307,1.4441 0.4079,0 1.1224,-0.1605 2.1427,-0.4814 1.2245,-0.3851 2.3981,-0.9467 3.5204,-1.6848 1.1224,-0.7381 1.9898,-1.4602 2.6019,-2.1662 0,-0.9627 -0.6121,-1.4441 -1.8365,-1.4441 -0.6124,0 -1.4286,0.1604 -2.4489,0.4814 -1.2245,0.3851 -2.3472,0.9467 -3.3675,1.6848 -1.0204,0.7381 -1.7345,1.4601 -2.1428,2.1662zm0.6124 8.6648l0 20.2178c0,0.5135 0.51,1.0911 1.5304,1.7329 1.0203,0.6419 2.3468,0.9628 3.9795,0.9628 3.0613,0 5.459,-0.2888 7.1938,-0.8665 1.7345,-0.5776 3.4184,-1.6367 5.0508,-3.1771l-1.2245 0c-2.0406,1.733 -3.7754,2.5995 -5.204,2.5995 -0.8162,0 -1.3774,-0.2889 -1.6836,-0.8665 -0.3059,-0.5777 -0.4591,-1.3479 -0.4591,-2.3106l0 -18.2923c0,-1.0912 -0.4083,-2.0218 -1.2245,-2.792 -0.8162,-0.7702 -2.1427,-1.1553 -3.9795,-1.1553 -1.4286,0 -2.7548,0.1604 -3.9793,0.4813 -1.8368,0.4493 -3.2142,1.2356 -4.1328,2.3588 -0.9182,1.1232 -1.5815,2.1662 -1.9898,3.1289l1.8369 0c0.4082,-0.9627 0.9694,-1.7971 1.6836,-2.5031 0.7144,-0.706 1.2756,-1.0591 1.6836,-1.0591 0.6123,0 0.9185,0.5135 0.9185,1.5405zm-65.5088 22.9135l9.1835 0 0 -19.2551c0.408,-0.9627 0.8671,-1.6367 1.3774,-2.0218 0.5104,-0.3851 2.296,-0.8664 5.357,-1.4441 0.2041,-0.1925 0.6124,-0.2888 1.2244,-0.2888 0.8166,0 1.6328,0.2407 2.449,0.722 0.8165,0.4814 1.2244,1.1714 1.2244,2.07l0 20.2178 9.1836 0 0 -19.6402c2.2448,-1.1553 3.9796,-1.9576 5.204,-2.4069 1.2245,-0.4493 2.2448,-0.6739 3.061,-0.6739 1.2244,0 1.9389,0.3691 2.143,1.1072 0.2038,0.7381 0.408,1.396 0.6121,1.9736l0 16.3668c0,1.0912 0.7144,1.8935 2.1427,2.4069 1.4286,0.5135 3.0613,0.7702 4.8978,0.7702 2.4489,0 4.7961,-0.353 7.0409,-1.059 1.2245,-0.706 2.1939,-1.2837 2.908,-1.733 0.7142,-0.4492 1.5816,-1.0269 2.6019,-1.7329l-1.8365 -0.1926c-1.0204,0.5135 -2.1428,1.1874 -3.3672,2.0218 -1.2245,0.8344 -2.3472,1.2516 -3.3675,1.2516 -0.4079,0 -0.8162,-0.2567 -1.2245,-0.7702 -0.4079,-0.5135 -0.612,-1.412 -0.612,-2.6957l0 -18.2923c0,-0.7061 -0.4083,-1.4923 -1.2245,-2.3588 -0.8165,-0.8665 -2.2451,-1.2997 -4.2857,-1.2997 -1.2245,0 -2.6531,0.2567 -4.2855,0.7702 -2.2451,0.706 -4.0816,1.4602 -5.5102,2.2625 -1.4286,0.8023 -3.2651,1.5885 -5.5102,2.3587 0,-1.4762 -0.2038,-2.7438 -0.6121,-3.8029 -0.4082,-1.059 -1.5306,-1.5885 -3.3671,-1.5885 -1.6328,0 -3.9796,0.5135 -7.0409,1.5404 -1.8365,0.5776 -3.5201,1.1393 -5.0508,1.6848 -1.5306,0.5456 -2.908,1.0109 -4.1325,1.396l0 -3.2734c0,-1.0269 -1.2244,-1.5404 -3.6733,-1.5404 -2.041,0 -4.0817,0.4493 -6.1223,1.3479 -1.2245,0.5135 -2.296,1.0109 -3.2142,1.4923 -0.9186,0.4813 -2.5002,1.1713 -4.7449,2.0699l1.8365 0c1.2244,-0.3851 2.4489,-0.5777 3.6737,-0.5777 1.8365,0 2.8568,0.8023 3.061,2.4069l0 20.4104zm-22.6526 -21.5657l0 16.7519c-1.0204,0.7702 -1.9898,1.3479 -2.9081,1.733 -0.9186,0.3851 -2.1939,0.7702 -3.8266,1.1553 -1.8365,0.5776 -3.5713,0.8665 -5.204,0.8665 -2.2448,0 -3.9284,-0.3691 -5.0508,-1.1072 -1.1224,-0.7381 -1.7856,-1.4281 -1.9898,-2.0699 -0.4082,-1.6688 -0.612,-3.2092 -0.612,-4.6212 0,-1.4121 0,-2.8883 0,-4.4287 0.2038,-1.3479 0.9182,-2.7439 2.1427,-4.188 1.2244,-1.4441 2.6018,-2.7599 4.1325,-3.9473 1.5306,-1.1874 3.1633,-2.1501 4.8978,-2.8882 1.7348,-0.7382 3.3163,-1.1072 4.7449,-1.1072 2.4489,0 3.6734,1.2837 3.6734,3.851zm0.612 17.5221c0.2042,0.3851 0.4595,0.8023 0.7654,1.2516 0.3061,0.4493 0.6632,0.8825 1.0715,1.2997 0.4082,0.4172 0.9694,0.7702 1.6836,1.0591 0.7141,0.2888 1.5815,0.4332 2.6018,0.4332 1.8369,0 3.8775,-0.5135 6.1226,-1.5404 2.2448,-1.0269 4.2854,-1.9255 6.1223,-2.6957 -0.6124,0 -1.0715,-0.0642 -1.3777,-0.1926 -0.3062,-0.1283 -0.4592,-0.2567 -0.4592,-0.3851 -1.0203,0.5777 -2.1427,1.2356 -3.3671,1.9737 -1.2245,0.7381 -2.3469,1.1071 -3.3672,1.1071 -0.8165,0 -1.2245,-0.5776 -1.2245,-1.7329l0 -22.5285c-2.0409,-0.5134 -4.694,-0.7702 -7.9591,-0.7702 -2.653,0 -4.6937,0.1926 -6.1223,0.5777 -7.1426,1.8613 -13.0098,4.2842 -17.6018,7.2688 -4.5916,2.9845 -6.8873,6.659 -6.8873,11.0235 0,1.1553 0.51,2.1662 1.5303,3.0327 1.0204,0.8665 2.194,1.6046 3.5205,2.2143 1.3265,0.6098 2.653,1.1072 3.9795,1.4923 1.3266,0.3851 2.3978,0.6418 3.2143,0.7702 1.4286,0.2567 2.9589,0.3851 4.5916,0.3851 3.0613,0 5.612,-0.4172 7.6529,-1.2516 2.0407,-0.8344 3.8775,-1.765 5.5099,-2.792zm0.0003 -45.2494c-5.9181,-2.2464 -12.4486,-3.3696 -19.5912,-3.3696 -3.6737,0 -7.245,0.3369 -10.7143,1.0108 -3.4692,0.674 -6.5305,1.7009 -9.1832,3.0809 -2.6531,1.3799 -4.7961,3.1129 -6.4285,5.1988 -1.6327,2.086 -2.4489,4.541 -2.4489,7.3651l0 11.3605c-4.0816,0 -7.9591,0.353 -11.6325,1.059 -3.6734,0.706 -5.5102,1.8934 -5.5102,3.5622 0,0.2568 0,0.5135 0,0.7702 0,0.2568 0.2041,0.5456 0.6124,0.8665 2.4489,-0.5135 4.5916,-0.8986 6.4284,-1.1553 1.8366,-0.2567 3.3672,-0.4814 4.5917,-0.6739 0,-0.7702 0.6124,-1.2837 1.8368,-1.5404 1.2245,-0.2568 2.4489,-0.3851 3.6734,-0.3851l0 33.6963c-0.8165,3.7227 -2.551,6.4505 -5.204,8.1835 -2.6531,1.7329 -5.9694,2.9203 -9.9489,3.5621 -3.9793,0.6419 -8.52,0.9628 -13.622,0.9628 -5.3061,0 -10.8163,0.0963 -16.5303,0.2888 -4.0816,0 -7.1426,0.1765 -9.1836,0.5295 -2.0406,0.3531 -3.061,0.7542 -3.061,1.2035 0,0.5135 1.0204,0.9627 3.061,1.3478 2.041,0.3851 5.102,0.5777 9.1836,0.5777 11.8366,-0.5777 21.3769,-1.6527 28.6219,-3.2252 7.2447,-1.5725 12.7546,-3.482 16.53,-5.7284 3.7755,-2.2464 6.2756,-4.7496 7.5,-7.5095 1.2245,-2.7599 1.8365,-5.6482 1.8365,-8.6648l0 -25.2241c2.041,0 4.4899,-0.2568 7.3468,-0.7702 2.8571,-0.5135 5.6123,-1.2837 8.2653,-2.3107 2.653,-1.0269 4.8978,-2.2624 6.7343,-3.7066 1.8369,-1.4441 2.7551,-3.0968 2.7551,-4.9581 0,-0.1926 -0.5611,-0.4814 -1.6835,-0.8665 -1.1224,-0.3851 -2.3469,-0.7702 -3.6734,-1.1553 -1.3265,-0.3851 -2.6531,-0.7542 -3.9796,-1.1072 -1.3265,-0.353 -2.0918,-0.5937 -2.2959,-0.7221 2.653,1.6046 4.4898,3.0167 5.5102,4.2362 1.0203,1.2194 1.5306,2.2785 1.5306,3.177 0,1.3479 -0.8674,2.3909 -2.6022,3.129 -1.7344,0.7381 -3.7242,1.2997 -5.969,1.6848 -2.2451,0.3851 -4.4899,0.6258 -6.7346,0.7221 -2.2448,0.0963 -3.9796,0.1444 -5.2041,0.1444l0 -11.3605c0,-2.9524 0.5104,-5.4396 1.5307,-7.4613 1.0203,-2.0218 2.296,-3.6425 3.8263,-4.862 1.5306,-1.2194 3.3163,-2.0859 5.3573,-2.5994 2.0406,-0.5135 4.1833,-0.7702 6.4284,-0.7702 2.6528,0 5.1017,0.337 7.3468,1.0109 2.2448,0.6739 4.0813,1.5885 5.5099,2.7438 1.2244,0.9628 2.7551,1.5886 4.5916,1.8774 1.8368,0.2888 4.1837,0.4333 7.0409,0.4333 0.612,0 0.9182,-0.321 0.9182,-0.9628 0,-0.3209 -0.1529,-0.706 -0.4591,-1.1553 -0.3062,-0.4493 -1.2757,-0.9628 -2.9081,-1.5404z"/>
  <path class="fil3 str2" d="M234.333 366.62c-20.907,11.3885 -38.9698,20.2492 -54.1882,26.5823 23.4691,5.9991 35.1481,12.8855 35.037,20.6594 8.905,-7.6164 20.7306,-11.4533 35.4767,-11.5106 41.5184,-2.577 70.3236,-6.1848 86.4154,-10.8234 8.9909,-2.6344 12.8278,-5.0396 11.5106,-7.2156 -5.885,-11.0509 -9.8498,-16.951 -11.8947,-17.7001 -0.7611,4.9294 -10.7121,8.7106 -29.8527,11.3435 -10.5942,1.8897 -21.5322,2.7488 -32.8138,2.577 -9.2198,6.242 -17.6381,6.9864 -25.2546,2.2334 -1.6034,-5.5262 -3.6651,-10.5371 -6.1848,-15.0325 0.229,-3.8655 1.489,-5.8413 3.7797,-5.9272 2.8852,-1.1429 4.2376,-2.5197 4.0575,-4.1304 -5.5378,3.137 -10.9005,6.1184 -16.0881,8.9442z"/>
  <path class="fil3 str2" d="M250.659 402.351c-14.7461,0.0573 -26.5717,3.8942 -35.4767,11.5106 -3.35,4.1232 -9.7353,6.1848 -19.1557,6.1849 -14.4884,-1.3171 -35.7344,-6.1849 -63.7378,-14.6031 -17.1226,-3.665 -31.8401,-2.9779 -44.1526,2.0616 -5.7552,1.9185 -12.4841,4.6959 -20.1865,8.3323 -6.4424,3.3502 -14.0876,4.4669 -22.9353,3.3501 -21.3033,-4.6385 -43.7519,-8.4754 -67.3456,-11.5106 -15.8056,-3.751 -22.6776,-6.6429 -20.616,-8.6759 -1.489,0.7731 -3.2071,3.8942 -5.154,9.3631 -2.0236,5.8043 -2.6111,10.9155 -1.7627,15.3334 4.7979,7.4015 14.0328,9.5633 27.7045,6.4852 20.1007,-6.9866 38.2542,-5.7266 54.4606,3.7796 6.7002,4.4668 13.0569,4.5813 19.0698,0.3436l31.783 -14.0876c9.22,-3.8368 16.951,-3.2068 23.193,1.8898 4.8104,3.0924 9.1627,6.643 13.0568,10.6516 5.4404,5.5549 12.1406,8.0174 20.1006,7.3874l61.6762 1.718c4.5241,-0.7731 9.0482,-2.7488 13.5722,-5.9271l48.2758 0.2577c13.5722,0.7732 24.7393,-0.6871 33.501,-4.3809 6.8148,-2.9778 17.5237,-5.9557 32.1266,-8.9336 14.4313,-2.8346 23.3649,-6.2993 26.8008,-10.3939 0.229,-8.1891 -0.4582,-15.8056 -2.0616,-22.8494 -0.2291,-3.2642 -1.8326,-5.0394 -4.8104,-5.3258 1.3172,2.176 -2.5197,4.5812 -11.5106,7.2156 -16.0918,4.6386 -44.897,8.2464 -86.4154,10.8234z"/>
  <path class="fil3 str2" d="M250.659 402.351c-14.7461,0.0573 -26.5717,3.8942 -35.4767,11.5106 -3.35,4.1232 -9.7353,6.1848 -19.1557,6.1849 -14.4884,-1.3171 -35.7344,-6.1849 -63.7378,-14.6031 -17.1226,-3.665 -31.8401,-2.9779 -44.1526,2.0616 -5.7552,1.9185 -12.4841,4.6959 -20.1865,8.3323 -6.4424,3.3502 -14.0876,4.4669 -22.9353,3.3501 -21.3033,-4.6385 -43.7519,-8.4754 -67.3456,-11.5106 -15.8056,-3.751 -22.6776,-6.6429 -20.616,-8.6759 -1.489,0.7731 -3.2071,3.8942 -5.154,9.3631 -2.0236,5.8043 -2.6111,10.9155 -1.7627,15.3334 4.7979,7.4015 14.0328,9.5633 27.7045,6.4852 20.1007,-6.9866 38.2542,-5.7266 54.4606,3.7796 6.7002,4.4668 13.0569,4.5813 19.0698,0.3436l31.783 -14.0876c9.22,-3.8368 16.951,-3.2068 23.193,1.8898 4.8104,3.0924 9.1627,6.643 13.0568,10.6516 5.4404,5.5549 12.1406,8.0174 20.1006,7.3874l61.6762 1.718c4.5241,-0.7731 9.0482,-2.7488 13.5722,-5.9271l48.2758 0.2577c13.5722,0.7732 24.7393,-0.6871 33.501,-4.3809 6.8148,-2.9778 17.5237,-5.9557 32.1266,-8.9336 14.4313,-2.8346 23.3649,-6.2993 26.8008,-10.3939 0.229,-8.1891 -0.4582,-15.8056 -2.0616,-22.8494 -0.2291,-3.2642 -1.8326,-5.0394 -4.8104,-5.3258 1.3172,2.176 -2.5197,4.5812 -11.5106,7.2156 -16.0918,4.6386 -44.897,8.2464 -86.4154,10.8234z"/>
  <path class="fil4 str2" d="M215.182 413.861c8.905,-7.6164 20.7306,-11.4533 35.4767,-11.5106 41.5184,-2.577 70.3236,-6.1848 86.4154,-10.8234 8.9909,-2.6344 12.8278,-5.0396 11.5106,-7.2156 -5.885,-11.0509 -9.8498,-16.951 -11.8947,-17.7001 -0.7611,4.9294 -10.7121,8.7106 -29.8527,11.3435 -10.5942,1.8897 -21.5322,2.7488 -32.8138,2.577 -9.2198,6.242 -17.6381,6.9864 -25.2546,2.2334 -1.6034,-5.5262 -3.6651,-10.5371 -6.1848,-15.0325 0.229,-3.8655 1.489,-5.8413 3.7797,-5.9272 2.8852,-1.1429 4.2376,-2.5197 4.0575,-4.1304 -5.5378,3.137 -10.9005,6.1184 -16.0881,8.9442 -20.907,11.3885 -38.9698,20.2492 -54.1882,26.5823 23.4691,5.9991 35.1481,12.8855 35.037,20.6594z"/>
  <path class="fil3 str2" d="M250.659 402.351c-14.7461,0.0573 -26.5717,3.8942 -35.4767,11.5106 -3.35,4.1232 -9.7353,6.1848 -19.1557,6.1849 -14.4884,-1.3171 -35.7344,-6.1849 -63.7378,-14.6031 -17.1226,-3.665 -31.8401,-2.9779 -44.1526,2.0616 -5.7552,1.9185 -12.4841,4.6959 -20.1865,8.3323 -6.4424,3.3502 -14.0876,4.4669 -22.9353,3.3501 -21.3033,-4.6385 -43.7519,-8.4754 -67.3456,-11.5106 -15.8056,-3.751 -22.6776,-6.6429 -20.616,-8.6759 -1.489,0.7731 -3.2071,3.8942 -5.154,9.3631 -2.0236,5.8043 -2.6111,10.9155 -1.7627,15.3334 4.7979,7.4015 14.0328,9.5633 27.7045,6.4852 20.1007,-6.9866 38.2542,-5.7266 54.4606,3.7796 6.7002,4.4668 13.0569,4.5813 19.0698,0.3436l31.783 -14.0876c9.22,-3.8368 16.951,-3.2068 23.193,1.8898 4.8104,3.0924 9.1627,6.643 13.0568,10.6516 5.4404,5.5549 12.1406,8.0174 20.1006,7.3874l61.6762 1.718c4.5241,-0.7731 9.0482,-2.7488 13.5722,-5.9271l48.2758 0.2577c13.5722,0.7732 24.7393,-0.6871 33.501,-4.3809 6.8148,-2.9778 17.5237,-5.9557 32.1266,-8.9336 14.4313,-2.8346 23.3649,-6.2993 26.8008,-10.3939 0.229,-8.1891 -0.4582,-15.8056 -2.0616,-22.8494 -0.2291,-3.2642 -1.8326,-5.0394 -4.8104,-5.3258 1.3172,2.176 -2.5197,4.5812 -11.5106,7.2156 -16.0918,4.6386 -44.897,8.2464 -86.4154,10.8234z"/>
  <path class="fil5 str2" d="M250.659 402.351c-14.7461,0.0573 -26.5717,3.8942 -35.4767,11.5106 -3.35,4.1232 -9.7353,6.1848 -19.1557,6.1849 -14.4884,-1.3171 -35.7344,-6.1849 -63.7378,-14.6031 -17.1226,-3.665 -31.8401,-2.9779 -44.1526,2.0616 -5.7552,1.9185 -12.4841,4.6959 -20.1865,8.3323 -6.4424,3.3502 -14.0876,4.4669 -22.9353,3.3501 -21.3033,-4.6385 -43.7519,-8.4754 -67.3456,-11.5106 -15.8056,-3.751 -22.6776,-6.6429 -20.616,-8.6759 -1.489,0.7731 -3.2071,3.8942 -5.154,9.3631 -2.0236,5.8043 -2.6111,10.9155 -1.7627,15.3334 4.7979,7.4015 14.0328,9.5633 27.7045,6.4852 20.1007,-6.9866 38.2542,-5.7266 54.4606,3.7796 6.7002,4.4668 13.0569,4.5813 19.0698,0.3436l31.783 -14.0876c9.22,-3.8368 16.951,-3.2068 23.193,1.8898 4.8104,3.0924 9.1627,6.643 13.0568,10.6516 5.4404,5.5549 12.1406,8.0174 20.1006,7.3874l61.6762 1.718c4.5241,-0.7731 9.0482,-2.7488 13.5722,-5.9271l48.2758 0.2577c13.5722,0.7732 24.7393,-0.6871 33.501,-4.3809 6.8148,-2.9778 17.5237,-5.9557 32.1266,-8.9336 14.4313,-2.8346 23.3649,-6.2993 26.8008,-10.3939 0.229,-8.1891 -0.4582,-15.8056 -2.0616,-22.8494 -0.2291,-3.2642 -1.8326,-5.0394 -4.8104,-5.3258 1.3172,2.176 -2.5197,4.5812 -11.5106,7.2156 -16.0918,4.6386 -44.897,8.2464 -86.4154,10.8234z"/>
  <path class="fil4 str2" d="M328.656 422.881c-14.6029,2.9779 -25.3118,5.9558 -32.1266,8.9336 -8.7617,3.6938 -19.9288,5.1541 -33.501,4.3809l-48.2758 -0.2577c-4.524,3.1783 -9.0481,5.154 -13.5722,5.9271l-61.6762 -1.718c-7.96,0.63 -14.6602,-1.8325 -20.1006,-7.3874 -3.8941,-4.0086 -8.2464,-7.5592 -13.0568,-10.6516 -6.242,-5.0966 -13.973,-5.7266 -23.193,-1.8898l-31.783 14.0876c-6.0129,4.2377 -12.3696,4.1232 -19.0698,-0.3436 -16.2064,-9.5062 -34.3599,-10.7662 -54.4606,-3.7796 -13.6717,3.0781 -22.9066,0.9163 -27.7045,-6.4852 0.9765,5.0842 3.8547,9.2503 8.6347,12.4982 10.7661,7.6165 39.3995,10.9952 85.9,10.1362 8.1892,0 14.4313,-1.8326 18.7262,-5.4976 14.4885,-4.2378 35.9636,-3.2069 64.425,3.0924 52.2845,3.436 85.9001,4.8104 100.847,4.1232 2.1189,-0.6871 3.6652,-2.0615 4.6386,-4.1233 1.8898,1.1454 3.6652,2.5199 5.3258,4.1233 42.7781,-1.1454 75.363,-5.9558 97.7542,-14.4312 12.4269,-5.0967 18.7836,-12.1405 19.0698,-21.1314 -3.4359,4.0946 -12.3695,7.5593 -26.8008,10.3939z"/>
  <path class="fil4 str2" d="M27.4213 366.595c13.6363,-8.9988 26.5707,-18.9627 38.8031,-29.8917 -38.179,10.3281 -71.3044,15.3675 -99.3761,15.1181 -1.8929,8.9539 -2.7531,18.8108 -2.5802,29.57 7.0438,-6.4137 17.4091,-10.5369 31.0958,-12.3695 13.5953,-5.1468 24.2811,-5.9557 32.0574,-2.4269z"/>
  <path class="fil4 str2" d="M-27.9314 327.877c16.7048,-4.4716 34.1109,-10.6964 52.2183,-18.6744 -17.9473,0.5215 -34.4608,0.5485 -49.5405,0.0811 -0.0272,0.9244 0.002,2.1107 0.0874,3.5589 -1.7124,1.975 -2.6341,6.9864 -2.7652,15.0344z"/>
  <path class="fil4 str2" d="M113.662 355.265c-21.8972,11.4871 -41.5902,20.7249 -59.079,27.7136 4.6194,3.4033 10.1483,6.129 16.5866,8.1771 27.639,-18.6796 41.8032,-30.6432 42.4924,-35.8907z"/>
  <path class="fil4 str2" d="M175.926 368.678c-22.1835,10.8948 -41.9934,19.3827 -59.4298,25.4636 13.5259,-4.5314 26.898,-6.0051 40.1164,-4.4214 11.6805,-9.4019 18.1183,-16.4159 19.3134,-21.0422z"/>
  <path class="fil6 str2" d="M250.659 402.351c-14.7461,0.0573 -26.5717,3.8942 -35.4767,11.5106 -3.35,4.1232 -9.7353,6.1848 -19.1557,6.1849 -14.4884,-1.3171 -35.7344,-6.1849 -63.7378,-14.6031 -17.1226,-3.665 -31.8401,-2.9779 -44.1526,2.0616 -5.7552,1.9185 -12.4841,4.6959 -20.1865,8.3323 -6.4424,3.3502 -14.0876,4.4669 -22.9353,3.3501 -21.3033,-4.6385 -43.7519,-8.4754 -67.3456,-11.5106 -15.8056,-3.751 -22.6776,-6.6429 -20.616,-8.6759 -1.489,0.7731 -3.2071,3.8942 -5.154,9.3631 -2.0236,5.8043 -2.6111,10.9155 -1.7627,15.3334 4.7979,7.4015 14.0328,9.5633 27.7045,6.4852 20.1007,-6.9866 38.2542,-5.7266 54.4606,3.7796 6.7002,4.4668 13.0569,4.5813 19.0698,0.3436l31.783 -14.0876c9.22,-3.8368 16.951,-3.2068 23.193,1.8898 4.8104,3.0924 9.1627,6.643 13.0568,10.6516 5.4404,5.5549 12.1406,8.0174 20.1006,7.3874l61.6762 1.718c4.5241,-0.7731 9.0482,-2.7488 13.5722,-5.9271l48.2758 0.2577c13.5722,0.7732 24.7393,-0.6871 33.501,-4.3809 6.8148,-2.9778 17.5237,-5.9557 32.1266,-8.9336 14.4313,-2.8346 23.3649,-6.2993 26.8008,-10.3939 0.229,-8.1891 -0.4582,-15.8056 -2.0616,-22.8494 -0.2291,-3.2642 -1.8326,-5.0394 -4.8104,-5.3258 1.3172,2.176 -2.5197,4.5812 -11.5106,7.2156 -16.0918,4.6386 -44.897,8.2464 -86.4154,10.8234z"/>
  <path class="fil4 str2" d="M215.182 413.861c8.905,-7.6164 20.7306,-11.4533 35.4767,-11.5106 41.5184,-2.577 70.3236,-6.1848 86.4154,-10.8234 8.9909,-2.6344 12.8278,-5.0396 11.5106,-7.2156 -5.885,-11.0509 -9.8498,-16.951 -11.8947,-17.7001 -0.7611,4.9294 -10.7121,8.7106 -29.8527,11.3435 -10.5942,1.8897 -21.5322,2.7488 -32.8138,2.577 -9.2198,6.242 -17.6381,6.9864 -25.2546,2.2334 -1.6034,-5.5262 -3.6651,-10.5371 -6.1848,-15.0325 0.229,-3.8655 1.489,-5.8413 3.7797,-5.9272 2.8852,-1.1429 4.2376,-2.5197 4.0575,-4.1304 -5.5378,3.137 -10.9005,6.1184 -16.0881,8.9442 -20.907,11.3885 -38.9698,20.2492 -54.1882,26.5823 23.4691,5.9991 35.1481,12.8855 35.037,20.6594z"/>
  <path class="fil5 str2" d="M250.659 402.351c-14.7461,0.0573 -26.5717,3.8942 -35.4767,11.5106 -3.35,4.1232 -9.7353,6.1848 -19.1557,6.1849 -14.4884,-1.3171 -35.7344,-6.1849 -63.7378,-14.6031 -17.1226,-3.665 -31.8401,-2.9779 -44.1526,2.0616 -5.7552,1.9185 -12.4841,4.6959 -20.1865,8.3323 -6.4424,3.3502 -14.0876,4.4669 -22.9353,3.3501 -21.3033,-4.6385 -43.7519,-8.4754 -67.3456,-11.5106 -15.8056,-3.751 -22.6776,-6.6429 -20.616,-8.6759 -1.489,0.7731 -3.2071,3.8942 -5.154,9.3631 -2.0236,5.8043 -2.6111,10.9155 -1.7627,15.3334 4.7979,7.4015 14.0328,9.5633 27.7045,6.4852 20.1007,-6.9866 38.2542,-5.7266 54.4606,3.7796 6.7002,4.4668 13.0569,4.5813 19.0698,0.3436l31.783 -14.0876c9.22,-3.8368 16.951,-3.2068 23.193,1.8898 4.8104,3.0924 9.1627,6.643 13.0568,10.6516 5.4404,5.5549 12.1406,8.0174 20.1006,7.3874l61.6762 1.718c4.5241,-0.7731 9.0482,-2.7488 13.5722,-5.9271l48.2758 0.2577c13.5722,0.7732 24.7393,-0.6871 33.501,-4.3809 6.8148,-2.9778 17.5237,-5.9557 32.1266,-8.9336 14.4313,-2.8346 23.3649,-6.2993 26.8008,-10.3939 0.229,-8.1891 -0.4582,-15.8056 -2.0616,-22.8494 -0.2291,-3.2642 -1.8326,-5.0394 -4.8104,-5.3258 1.3172,2.176 -2.5197,4.5812 -11.5106,7.2156 -16.0918,4.6386 -44.897,8.2464 -86.4154,10.8234z"/>
  <path class="fil6 str2" d="M263.028 436.195l-48.2758 -0.2577c-4.524,3.1783 -9.0481,5.154 -13.5722,5.9271l-61.6762 -1.718c-7.96,0.63 -14.6602,-1.8325 -20.1006,-7.3874 -3.8941,-4.0086 -8.2464,-7.5592 -13.0568,-10.6516 -6.242,-5.0966 -13.973,-5.7266 -23.193,-1.8898l-31.783 14.0876c-6.0129,4.2377 -12.3696,4.1232 -19.0698,-0.3436 -16.2064,-9.5062 -34.3599,-10.7662 -54.4606,-3.7796 -13.6717,3.0781 -22.9066,0.9163 -27.7045,-6.4852 0.9765,5.0842 3.8547,9.2503 8.6347,12.4982 10.7661,7.6165 39.3995,10.9952 85.9,10.1362 8.1892,0 14.4313,-1.8326 18.7262,-5.4976 14.4885,-4.2378 35.9636,-3.2069 64.425,3.0924 52.2845,3.436 85.9001,4.8104 100.847,4.1232 2.1189,-0.6871 3.6652,-2.0615 4.6386,-4.1233 1.8898,1.1454 3.6652,2.5199 5.3258,4.1233 42.7781,-1.1454 75.363,-5.9558 97.7542,-14.4312 12.4269,-5.0967 18.7836,-12.1405 19.0698,-21.1314 -3.4359,4.0946 -12.3695,7.5593 -26.8008,10.3939 -14.6029,2.9779 -25.3118,5.9558 -32.1266,8.9336 -8.7617,3.6938 -19.9288,5.1541 -33.501,4.3809z"/>
  <path class="fil6 str2" d="M67.9494 415.837c7.7024,-3.6364 14.4313,-6.4138 20.1865,-8.3323 12.3125,-5.0395 27.03,-5.7266 44.1526,-2.0616 28.0034,8.4182 49.2494,13.286 63.7378,14.6031 9.4204,-0.0001 15.8057,-2.0617 19.1557,-6.1849 0.1111,-7.7739 -11.5679,-14.6603 -35.037,-20.6594 -19.3459,8.0506 -34.0955,12.0165 -44.2487,11.8976 8.1407,-5.6891 15.046,-10.8156 20.716,-15.3794 -13.2184,-1.5837 -26.5905,-0.11 -40.1164,4.4214 -28.2058,9.8366 -50.2005,13.3748 -65.9842,10.6144 7.5654,-4.8719 14.4513,-9.4051 20.6578,-13.5997 -6.4383,-2.0481 -11.9672,-4.7738 -16.5866,-8.1771 -38.3353,15.3191 -66.0799,19.8313 -83.2335,13.5364 19.8506,-8.3785 38.5413,-18.3522 56.0719,-29.9209 -7.7763,-3.5288 -18.4621,-2.7199 -32.0574,2.4269 -13.6867,1.8326 -24.052,5.9558 -31.0958,12.3696 -4.0087,1.804 -6.4139,7.6739 -7.2156,17.6095 -2.0616,2.033 4.8104,4.9249 20.616,8.6759 23.5937,3.0352 46.0423,6.8721 67.3456,11.5106 8.8477,1.1168 16.4929,0.0001 22.9353,-3.3501z"/>
  <path class="fil4 str2" d="M27.4213 366.595c13.6363,-8.9988 26.5707,-18.9627 38.8031,-29.8917 -38.179,10.3281 -71.3044,15.3675 -99.3761,15.1181 -1.8929,8.9539 -2.7531,18.8108 -2.5802,29.5701 7.0438,-6.4138 17.4091,-10.537 31.0958,-12.3696 13.5953,-5.1468 24.2811,-5.9557 32.0574,-2.4269z"/>
  <path class="fil4 str2" d="M175.926 368.678c-22.1835,10.8948 -41.9934,19.3827 -59.4298,25.4636 13.5259,-4.5314 26.898,-6.0051 40.1164,-4.4214 11.6805,-9.4019 18.1183,-16.4159 19.3134,-21.0422z"/>
 </g>
</svg>
